<?xml version="1.0" encoding="utf-8"?>
<!-- Generator: Adobe Illustrator 22.0.1, SVG Export Plug-In . SVG Version: 6.00 Build 0)  -->
<svg version="1.1" id="Layer_1" xmlns="http://www.w3.org/2000/svg" xmlns:xlink="http://www.w3.org/1999/xlink" x="0px" y="0px"
	 viewBox="0 0 104.1 97" style="enable-background:new 0 0 104.1 97;" xml:space="preserve">
<style type="text/css">
	.st0{stroke:#000000;stroke-miterlimit:10;}
	.st1{fill:#FFFFFF;}
</style>
<path class="st0" d="M23.5,85.4l-12.2-36c0,0-9.7-4.6-4.3-7.9c5.4-3.2,7.2,0.2,6.2,5.4c-1,5.2,11.9,5.7,11.9,5.7L27.3,42l-1.4-5.7
	c0,0-7-3.8-0.5-6.8s7,3.8,5.4,4.6C29.2,34.9,34,42,34,42l7.6,4.3l7.9-14.9l1.1-2.6h3.5l7.6,15.4l10-9.2l5.4,1.9
	c0,0-0.5,11.9,1.6,14.1c2.2,2.2,12.7-6.8,12.7-6.8l3.2,4.3L80.3,85.3c0,0-22.6-3.8-27.8-3.8C47.3,81.6,23.5,85.4,23.5,85.4z"/>
<polygon class="st1" points="28.6,66.7 33.3,57.1 39.2,66.7 33.9,75.1 "/>
<polygon class="st1" points="46.8,61.9 52.6,51.3 58.2,61.9 52.5,71.4 "/>
<polygon class="st1" points="67.9,66.1 73.3,58.6 78.2,67.3 73,75.1 "/>
<path class="st0" d="M50.6,28.9c0,0-7.9-6.3,0-6.6c7.9-0.3,5.7,0,4.6,3.3s-1.1,3.3-1.1,3.3S50.6,28.9,50.6,28.9z"/>
<path class="st0" d="M71.7,35.1c0,0-4.1-8.5,4.1-6.2c8.1,2.4,5.7,6.7,1.4,8.1C72.8,38.3,71.7,35.1,71.7,35.1z"/>
<path class="st0" d="M91.5,44.3c0,0-1.1-9.5,5.1-3.8c6.2,5.7,3.2,7.9-1.9,8.1C89.6,48.9,91.5,44.3,91.5,44.3z"/>
</svg>
